<svg id="Layer_1" data-name="Layer 1" xmlns="http://www.w3.org/2000/svg" viewBox="0 0 64 64"><defs><style>.cls-1{fill:#d9ebf4;}.cls-2{fill:#c6e2f4;}.cls-3{fill:none;stroke:#041256;stroke-linecap:round;stroke-linejoin:round;stroke-width:2px;}.cls-4{fill:#bc4b77;}.cls-5{fill:#e0699a;}.cls-6{fill:#81eab3;}.cls-7{fill:#041256;}.cls-8{fill:#1b307f;}.cls-9{fill:#e8c534;}.cls-10{fill:#5ccc94;}.cls-11{fill:#4cbf88;}.cls-12{fill:#75e0a8;}.cls-13{fill:#3bb790;}</style></defs><title>payment, method, cash, credit card, money, finance</title><path class="cls-1" d="M8,43.05H5.56a.76.76,0,0,1,0-1.52H6.77a.46.46,0,0,0,.46-.46.46.46,0,0,1,.46-.46h2.43a.76.76,0,1,1,0,1.52H8.9a.46.46,0,0,0-.46.46A.46.46,0,0,1,8,43.05Z"/><path class="cls-1" d="M10,44.24h1.41a.26.26,0,0,1,.26.26.26.26,0,0,0,.26.26h.7a.44.44,0,0,1,0,.88H11.19a.26.26,0,0,1-.26-.26.26.26,0,0,0-.26-.26H10a.44.44,0,1,1,0-.88Z"/><path class="cls-1" d="M5.24,36.54H6.65a.26.26,0,0,1,.26.26.26.26,0,0,0,.26.26h.7a.44.44,0,1,1,0,.88H6.47a.26.26,0,0,1-.26-.26.26.26,0,0,0-.26-.26h-.7a.44.44,0,0,1,0-.88Z"/><circle class="cls-1" cx="17.5" cy="45.96" r="0.63"/><circle class="cls-1" cx="7.83" cy="46.1" r="0.61"/><circle class="cls-1" cx="4.8" cy="47.35" r="0.98"/><circle class="cls-1" cx="4.21" cy="39.73" r="0.32"/><circle class="cls-1" cx="14.2" cy="47.35" r="0.39"/><circle class="cls-1" cx="11.27" cy="48.56" r="1.02"/><circle class="cls-1" cx="15.24" cy="44.59" r="0.35"/><path class="cls-1" d="M54.55,6.48h0A.5.5,0,0,0,54,6H51.37a.83.83,0,0,0-.83.83h0a.83.83,0,0,0,.83.83h1.33a.5.5,0,0,1,.5.5h0a.5.5,0,0,0,.5.5h2.67a.83.83,0,0,0,.83-.83h0A.83.83,0,0,0,56.38,7H55A.5.5,0,0,1,54.55,6.48Z"/><path class="cls-1" d="M49.71,10.25h0A.29.29,0,0,1,50,10h1.55a.48.48,0,0,1,.48.48h0a.48.48,0,0,1-.48.48h-.77a.29.29,0,0,0-.29.29h0a.29.29,0,0,1-.29.29H48.65a.48.48,0,0,1-.48-.48h0a.48.48,0,0,1,.48-.48h.77A.29.29,0,0,0,49.71,10.25Z"/><circle class="cls-1" cx="53.01" cy="18.16" r="0.7"/><circle class="cls-1" cx="53.88" cy="12" r="0.67"/><circle class="cls-1" cx="57.21" cy="13.37" r="1.08"/><circle class="cls-1" cx="57.87" cy="5.01" r="0.35"/><circle class="cls-1" cx="46.88" cy="13.37" r="0.43"/><circle class="cls-1" cx="50.1" cy="14.71" r="1.12"/><circle class="cls-1" cx="45.74" cy="10.35" r="0.39"/><path class="cls-2" d="M61,59.34V32.06a.89.89,0,0,0-.89-.89h-.93a.89.89,0,0,0-.89.89v2.27a.89.89,0,0,1-.89.89h-3a.89.89,0,0,0-.89.89V46.5a.89.89,0,0,1-.89.89H50.74a.89.89,0,0,0-.89.89v6.54a.89.89,0,0,1-.89.89h-.9a.89.89,0,0,1-.89-.89V53.68a.89.89,0,0,0-.89-.89h-.81a.89.89,0,0,1-.89-.89V50.37a.89.89,0,0,0-.89-.89H38.9a.89.89,0,0,1-.89-.89v-.91a.89.89,0,0,0-.89-.89H21.71a.89.89,0,0,0-.63.26l-4.14,4.14a.89.89,0,0,1-.63.26H15.07a.89.89,0,0,0-.89.89v3a.89.89,0,0,1-.89.89h-.51a.89.89,0,0,1-.89-.89v-.52a.89.89,0,0,0-.89-.89h-.65A.89.89,0,0,1,9.46,53a.89.89,0,0,0-.89-.89H3.94A.89.89,0,0,0,3,53v6.31Z"/><line class="cls-3" x1="61" y1="59.34" x2="3" y2="59.34"/><rect class="cls-4" x="21.88" y="35.61" width="35.24" height="23.43" rx="1.81" ry="1.81"/><path class="cls-5" d="M54.23,35.61H25.32a2.88,2.88,0,0,0-2.88,2.88v.35a2.86,2.86,0,0,1,1.63-.51H53.55a2.88,2.88,0,0,1,2.88,2.88V58a2.86,2.86,0,0,0,.68-1.85V38.49A2.88,2.88,0,0,0,54.23,35.61Z"/><path class="cls-5" d="M34,59H24.76a2.88,2.88,0,0,1-2.88-2.88V38.49a2.88,2.88,0,0,1,2.88-2.88h.16V55.34a.79.79,0,0,0,.79.79h7.34a1,1,0,0,1,1,1Z"/><path class="cls-6" d="M24.18,35.67a2.88,2.88,0,0,0-2.3,2.82v.35a2.86,2.86,0,0,1,1.63-.51h1.41V35.61h-.16A2.9,2.9,0,0,0,24.18,35.67Z"/><rect class="cls-7" x="36.66" y="26.39" width="5.67" height="35.24" transform="translate(-4.51 83.5) rotate(-90)"/><rect class="cls-5" x="35.64" y="56.13" width="1.23" height="2.91"/><path class="cls-5" d="M54.23,59h-13V57.62a1.49,1.49,0,0,1,1.49-1.49H57.12v0A2.88,2.88,0,0,1,54.23,59Z"/><rect class="cls-5" x="38.25" y="56.13" width="1.81" height="2.91"/><rect class="cls-8" x="21.88" y="41.17" width="3.04" height="5.67"/><path class="cls-7" d="M50.19,51.9a2.47,2.47,0,0,1-.84,1.85,2.49,2.49,0,1,0,0-3.71A2.47,2.47,0,0,1,50.19,51.9Z"/><path class="cls-9" d="M48.5,51.9A2.47,2.47,0,0,1,49.35,50a2.49,2.49,0,1,0,0,3.71A2.47,2.47,0,0,1,48.5,51.9Z"/><path class="cls-10" d="M50.19,51.9A2.47,2.47,0,0,0,49.35,50a2.46,2.46,0,0,0,0,3.71A2.47,2.47,0,0,0,50.19,51.9Z"/><rect class="cls-3" x="21.88" y="35.61" width="35.24" height="23.43" rx="1.81" ry="1.81"/><rect class="cls-11" x="5.33" y="12.01" width="41.6" height="23.43" rx="1.81" ry="1.81"/><rect class="cls-10" x="22.28" y="12.01" width="1.23" height="2.91"/><path class="cls-10" d="M44.05,12H27.88v1.41a1.49,1.49,0,0,0,1.49,1.49H46.94v0A2.88,2.88,0,0,0,44.05,12Z"/><rect class="cls-10" x="24.89" y="12.01" width="1.81" height="2.91"/><path class="cls-10" d="M20.66,12H8.22A2.88,2.88,0,0,0,5.33,14.9V32.56a2.88,2.88,0,0,0,2.88,2.88h.16V15.71a.79.79,0,0,1,.79-.79H19.7a1,1,0,0,0,1-1Z"/><path class="cls-12" d="M37.32,31a4.41,4.41,0,0,1,4.41-4.41c.14,0,.27,0,.4,0V18.11a1.68,1.68,0,0,0-1.68-1.68H15s0,0,0,0a4.41,4.41,0,0,1-4.41,4.41c-.14,0-.27,0-.4,0v8.51A1.68,1.68,0,0,0,11.82,31h25.5S37.32,31,37.32,31Z"/><path class="cls-10" d="M11.32,30.28V21.77c.14,0,.27,0,.4,0a4.41,4.41,0,0,0,4.41-4.41s0,0,0,0h25.5a1.61,1.61,0,0,1,.37.07,1.67,1.67,0,0,0-1.54-1H15s0,0,0,0a4.41,4.41,0,0,1-4.41,4.41c-.14,0-.27,0-.4,0v8.51a1.65,1.65,0,0,0,1.31,1.6A1.66,1.66,0,0,1,11.32,30.28Z"/><circle class="cls-10" cx="11.32" cy="17.6" r="1.17"/><circle class="cls-10" cx="40.95" cy="29.85" r="1.17"/><circle class="cls-13" cx="26.14" cy="23.73" r="4.94"/><rect class="cls-3" x="5.33" y="12.01" width="41.6" height="23.43" rx="1.81" ry="1.81"/></svg>